<?xml version="1.0" encoding="UTF-8" standalone="no"?>
<svg id="svg2" xmlns:rdf="http://www.w3.org/1999/02/22-rdf-syntax-ns#" xmlns="http://www.w3.org/2000/svg" viewBox="0 0 1396.8738 849.14801" height="849.15pt" width="1396.9pt" version="1.1" xmlns:cc="http://creativecommons.org/ns#" xmlns:dc="http://purl.org/dc/elements/1.1/">
<g id="g6575">
<rect id="rect6573" height="849.15" width="1396.9" y=".000022632" x="0" fill="#fff"/>
<rect id="rect6559" opacity=".5" height="849.15" width="1396.9" y=".000020867" x=".00080550" fill="#ffc33f"/>
<path id="path6519" opacity=".5" d="m-5.1499e-8 0.0003088v46.143c29.49-16.093 59.392-31.466 89.632-46.143h-89.632zm1027 0c38.277 34.713 69.941 76.186 90.793 124.64 27.208 64.193 31.792 142.99-3.7777 204.75 17.2-109.63-54.1-214.14-146.86-266.37-76.82-44.79-166.95-63.861-255.39-61.951-127.69 1.1913-252.34 41.12-364.66 100.14-129.77 68.64-244.33 162.12-347.09 266.53v481.4h0.018398c73.406-172.04 162.91-337.52 289.57-476.38 84.77-91.61 185.42-171.11 301.77-218.32 115.23-47.36 250.5-61.959 367.01-10.7 75.43 33.11 143.53 101.64 151.33 186.56-39.6-80.77-129.23-126.91-216.75-130.75-135-8.25-263.78 58.51-359.62 149.21-123.96 117.3-202.75 274.25-251.55 436.04-6.3306 21.343-11.991 42.82-17.377 64.349h204.46c12.096-104.91 38.444-208.26 86.592-302.53 38.766-76.565 91.743-147.08 160.1-199.61 72.366-56.61 165.33-92.849 258.23-80.713 49.392 6.8522 99.537 27.22 133.07 65.16-87.344-43.236-194.54-22.32-270.35 35.068-67.531 48.826-116.71 119.58-148.36 196.02-37.347 90.45-51.395 189.07-49.239 286.61h149.52c-3.9491-21.538-7.0613-43.257-9.048-65.179-6.8404-86.943 2.1737-176.66 36.8-257.32 27.621-64.748 72.517-123.65 133.36-160.3 46.432-27.503 102.69-42.914 156.34-31.18-95.942 15.615-169.75 95.134-197.97 185.31-36.165 107.1-20.442 225.02 20.068 328.68h143.29c-10.751-14.896-20.866-30.29-30.277-46.198-54.003-91.366-82.504-202.96-55.744-307.72 16.759-64.877 58.184-127.35 120.44-155.55-43.366 45.606-67.489 108.58-65.437 171.52 0.1651 87.108 39.581 169.83 94.387 235.84 33.388 39.308 72.303 73.211 114.75 102.11h147.5v-69.122c-40.356-12.077-79.505-28.103-116.61-48.889-76.694-43.012-144.06-108.46-176.67-191.3-25.463-63.427-27.941-139.64 6.7446-200.07-11.416 70.939 13.46 144.27 60.682 197.51 57.523 66.586 140.35 106.1 225.85 123.08v-101.28c-12.364-0.85858-24.716-2.2415-37.021-4.2384-72.39-10.921-143.94-42.718-192.79-98.514-27.302-32.032-50.142-71.568-52.795-114.34 39.91 78.416 126.04 123.92 211.81 129.71 23.707 1.7418 47.379 1.0904 70.799-1.6032v-83.164c-50.767 18.461-105.34 25.805-158.96 16.216-44.91-8.7863-90.108-28.381-120.7-63.373 76.659 37.539 170.06 27.028 242.03-16.585 13.141-7.6339 25.661-16.155 37.629-25.356v-129.51c-13.232 26.128-29.252 50.838-48.354 73.379-55.973 66.057-144.74 112.45-232.69 93.981 67.814-10.355 127.76-53.083 164.37-110.4 43.115-66.25 59.461-146.94 55.338-225.28h-98.127c3.5606 14.395 6.5091 28.955 8.5873 43.71 7.0998 63.32 1.6474 130.26-28.25 187.52-21.736 43.141-56.725 82.159-101.65 101.24 55.348-54.9 77.118-137.78 64.239-213.8-6.049-42.046-20.1-81.788-39.859-118.67h-113.48z" fill="#c10000"/>
<path id="path6555" opacity=".5" d="m-5.1499e-8 0.0003088v199.87c96.6-71.8 199.22-135.76 309.9-183.45 13.26-5.745 26.68-11.176 40.19-16.42l-350.09 0.0003088zm946.65 0c55.372 30.352 103.87 71.932 138.19 126.25 36.915 59.147 53.756 136.25 28.286 202.82-0.2-110.97-87-203.04-186.7-240.12-82.89-32.222-174.9-36.95-261.95-21.228-125.94 21.152-242.82 80.098-344.53 155.96-126.17 94.65-230.53 214.88-319.92 344.32v281.15h142.39c40.27-122.2 92.02-240.11 163.25-348.27 69.4-103.73 156.35-198.02 263.89-262.85 106.39-64.8 237.72-100.38 360.81-67.98 79.66 20.92 157.56 77.96 178.66 160.6-51.8-73.58-147.51-105.14-234.55-95.24-134.63 12.97-251.38 99.05-331.85 203.63-91.66 119.1-143.85 263.09-170.66 410.11h185.27c3.415-74.009 15.156-147.44 38.201-218.13 26.311-81.686 67.596-159.64 126.89-222.22 62.62-67.233 148.78-117.55 242.43-120.09 49.856-0.95888 102.55 11.298 141.6 43.526-93.032-29.04-195.63 8.3947-261.53 76.936-59.061 58.789-96.566 136.37-115.87 216.82-17.436 72.984-20.658 148.58-13.397 223.16h143.28c-1.7579-6.2322-3.552-12.45-5.1413-18.741-20.357-84.803-25.469-174.81-3.8882-259.9 17.152-68.271 52.28-133.47 106.64-179.19 41.558-34.428 94.716-58.462 149.54-55.265-92.318 30.431-152.78 120.52-166.55 214-17.512 102.9 10.134 207.98 58.729 299.1h154.06c-12.955-13.036-25.362-26.681-37.15-40.928-67.631-81.793-113.24-187.55-103.2-295.21 6.4035-66.7 37.545-134.89 94.626-172.48-35.697 51.829-49.668 117.8-37.795 179.65 13.79 86.01 65.661 161.56 130.12 218.18 57.964 49.779 125.98 86.075 198.06 110.77v-131.76c-19.134-4.8139-38.068-10.622-56.72-17.506-82.479-30.484-159.25-84.579-204.42-161.3-35.071-58.662-49.424-133.56-24.619-198.67-0.1783 71.852 35.861 140.39 90.83 185.59 55.025 46.461 123.96 72.356 194.93 82.114v-94.405c-1.8933 0.0189-3.7801 0.11794-5.6758 0.11039-73.207 0.53779-148.86-19.701-205.84-67.169-31.977-27.366-60.713-62.835-70.025-104.67 51.686 71.208 143.88 102.69 229.5 94.995 17.596-1.477 34.957-4.286 52.04-8.2004v-84.122c-46.064 24.666-97.145 39.451-149.84 38.403-45.732-1.6526-93.451-13.935-129.14-43.71 81.588 25.085 172.21 0.0849 236.46-54.251 15.395-12.535 29.506-26.378 42.513-41.186v-243.39h-8.5321c-2.3 72.08-19.8 143.83-57.4 205.75-44.95 73.999-125.37 133.72-215.12 129.23 65.359-20.836 117.9-72.403 145.1-134.74 27.928-62.564 34.265-132.71 24.841-200.25h-96.137c3.3 8.6548 6.4 17.398 9.1 26.278 16.918 61.43 21.991 128.37 1.4189 189.6-14.72 46.01-43.162 90.035-84.546 115.91 46.078-62.882 54.631-148.13 30.019-221.21-12.5-40.417-32.5-77.342-57.7-110.58h-141.38z" fill="#b26e00"/>
</g>
</svg>
